<svg width="24" height="24" viewBox="0 0 24 24" fill="none" xmlns="http://www.w3.org/2000/svg">
<g clip-path="url(#clip0_5_171)">
<path d="M22.1674 2.31985L16.3366 2.31987V0.868546C16.3366 0.466209 16.0108 0.140335 15.6084 0.140335C15.2061 0.140335 14.8802 0.466209 14.8802 0.868546V2.31951H9.05453V0.868546C9.05453 0.466209 8.72865 0.140335 8.32631 0.140335C7.92398 0.140335 7.5981 0.466209 7.5981 0.868546V2.31951H1.77751C0.973204 2.31951 0.321091 2.97162 0.321091 3.77593V21.9812C0.321091 22.7855 0.973204 23.4376 1.77751 23.4376H22.1674C22.9717 23.4376 23.6238 22.7855 23.6238 21.9812V3.77593C23.6238 2.97196 22.9717 2.31985 22.1674 2.31985ZM22.1674 21.9812H1.77751V3.77593H7.5981V4.5096C7.5981 4.91191 7.92398 5.23781 8.32631 5.23781C8.72865 5.23781 9.05453 4.91191 9.05453 4.5096V3.77629H14.8802V4.50996C14.8802 4.9123 15.2061 5.23818 15.6084 5.23818C16.0108 5.23818 16.3366 4.9123 16.3366 4.50996V3.77629H22.1674V21.9812ZM17.0699 11.7866H18.5264C18.9283 11.7866 19.2546 11.4604 19.2546 11.0584V9.60196C19.2546 9.19998 18.9283 8.87375 18.5264 8.87375H17.0699C16.668 8.87375 16.3417 9.19998 16.3417 9.60196V11.0584C16.3417 11.4604 16.668 11.7866 17.0699 11.7866ZM17.0699 17.6119H18.5264C18.9283 17.6119 19.2546 17.286 19.2546 16.8837V15.4273C19.2546 15.0253 18.9283 14.6991 18.5264 14.6991H17.0699C16.668 14.6991 16.3417 15.0253 16.3417 15.4273V16.8837C16.3417 17.2864 16.668 17.6119 17.0699 17.6119ZM12.7007 14.6991H11.2443C10.8423 14.6991 10.516 15.0253 10.516 15.4273V16.8837C10.516 17.286 10.8423 17.6119 11.2443 17.6119H12.7007C13.1026 17.6119 13.4289 17.286 13.4289 16.8837V15.4273C13.4289 15.0257 13.1026 14.6991 12.7007 14.6991ZM12.7007 8.87375H11.2443C10.8423 8.87375 10.516 9.19998 10.516 9.60196V11.0584C10.516 11.4604 10.8423 11.7866 11.2443 11.7866H12.7007C13.1026 11.7866 13.4289 11.4604 13.4289 11.0584V9.60196C13.4289 9.19962 13.1026 8.87375 12.7007 8.87375ZM6.87499 8.87375H5.41857C5.0166 8.87375 4.69036 9.19998 4.69036 9.60196V11.0584C4.69036 11.4604 5.0166 11.7866 5.41857 11.7866H6.87499C7.27696 11.7866 7.6032 11.4604 7.6032 11.0584V9.60196C7.6032 9.19962 7.27696 8.87375 6.87499 8.87375ZM6.87499 14.6991H5.41857C5.0166 14.6991 4.69036 15.0253 4.69036 15.4273V16.8837C4.69036 17.286 5.0166 17.6119 5.41857 17.6119H6.87499C7.27696 17.6119 7.6032 17.286 7.6032 16.8837V15.4273C7.6032 15.0257 7.27696 14.6991 6.87499 14.6991Z" fill="#444444"/>
</g>
<defs>
<clipPath id="clip0_5_171">
<rect width="23.3028" height="23.3028" fill="white" transform="translate(0.321091 0.137619)"/>
</clipPath>
</defs>
</svg>
