<svg width="21" height="22" viewBox="0 0 21 22" fill="none" xmlns="http://www.w3.org/2000/svg">
<path d="M14.7929 13.6517H13.86L13.5294 13.3328C14.7266 11.9442 15.3846 10.1714 15.3833 8.33792C15.3833 6.81986 14.9332 5.3359 14.0898 4.07368C13.2464 2.81147 12.0476 1.82769 10.6451 1.24676C9.24265 0.665822 7.69938 0.513823 6.21049 0.809981C4.72161 1.10614 3.35398 1.83715 2.28055 2.91058C1.20713 3.984 0.476113 5.35163 0.179955 6.84052C-0.116203 8.3294 0.0357963 9.87267 0.61673 11.2752C1.19766 12.6777 2.18144 13.8764 3.44366 14.7198C4.70587 15.5632 6.18984 16.0133 7.70789 16.0133C9.60903 16.0133 11.3567 15.3166 12.7028 14.1594L13.0216 14.4901V15.4229L18.9258 21.3153L20.6852 19.5558L14.7929 13.6517ZM7.70789 13.6517C4.76762 13.6517 2.39414 11.2782 2.39414 8.33792C2.39414 5.39764 4.76762 3.02417 7.70789 3.02417C10.6482 3.02417 13.0216 5.39764 13.0216 8.33792C13.0216 11.2782 10.6482 13.6517 7.70789 13.6517Z" fill="#444444"/>
</svg>
